<svg width="90" height="90" viewBox="0 0 90 90" fill="none" xmlns="http://www.w3.org/2000/svg">
<circle cx="45" cy="45" r="45" fill="#FEDCC7"/>
<path d="M34.3281 49.6562C32.7984 49.6562 31.303 50.1099 30.0311 50.9597C28.7592 51.8096 27.7679 53.0175 27.1825 54.4308C26.5971 55.8441 26.4439 57.3992 26.7423 58.8995C27.0408 60.3998 27.7774 61.778 28.8591 62.8597C29.9407 63.9413 31.3189 64.678 32.8192 64.9764C34.3195 65.2748 35.8747 65.1217 37.2879 64.5363C38.7012 63.9509 39.9091 62.9595 40.759 61.6876C41.6089 60.4157 42.0625 58.9203 42.0625 57.3906C42.0625 55.3393 41.2476 53.3721 39.7971 51.9216C38.3467 50.4711 36.3794 49.6562 34.3281 49.6562ZM34.3281 61.6875C33.4783 61.6875 32.6475 61.4355 31.9409 60.9633C31.2343 60.4912 30.6835 59.8201 30.3583 59.035C30.0331 58.2498 29.948 57.3859 30.1138 56.5523C30.2796 55.7188 30.6888 54.9532 31.2898 54.3523C31.8907 53.7513 32.6563 53.3421 33.4898 53.1763C34.3233 53.0105 35.1873 53.0956 35.9724 53.4208C36.7576 53.7461 37.4287 54.2968 37.9008 55.0034C38.373 55.71 38.625 56.5408 38.625 57.3906C38.625 57.9549 38.5138 58.5136 38.2979 59.035C38.082 59.5563 37.7655 60.03 37.3665 60.429C36.9675 60.828 36.4938 61.1445 35.9724 61.3604C35.4511 61.5764 34.8924 61.6875 34.3281 61.6875ZM27.0965 39.8465L30.1795 36.7656L27.0965 33.6848C26.774 33.3623 26.5928 32.9248 26.5928 32.4688C26.5928 32.0127 26.774 31.5752 27.0965 31.2527C27.419 30.9302 27.8564 30.749 28.3125 30.749C28.7686 30.749 29.206 30.9302 29.5285 31.2527L32.6094 34.3357L35.6902 31.2527C36.0127 30.9302 36.4501 30.749 36.9062 30.749C37.3623 30.749 37.7997 30.9302 38.1222 31.2527C38.4448 31.5752 38.6259 32.0127 38.6259 32.4688C38.6259 32.9248 38.4448 33.3623 38.1222 33.6848L35.0392 36.7656L38.1222 39.8465C38.4448 40.169 38.6259 40.6064 38.6259 41.0625C38.6259 41.5186 38.4448 41.956 38.1222 42.2785C37.7997 42.601 37.3623 42.7822 36.9062 42.7822C36.4501 42.7822 36.0127 42.601 35.6902 42.2785L32.6094 39.1955L29.5285 42.2785C29.206 42.601 28.7686 42.7822 28.3125 42.7822C27.8564 42.7822 27.419 42.601 27.0965 42.2785C26.774 41.956 26.5928 41.5186 26.5928 41.0625C26.5928 40.6064 26.774 40.169 27.0965 39.8465ZM67.341 60.4715C67.5007 60.6312 67.6274 60.8208 67.7138 61.0294C67.8002 61.238 67.8447 61.4617 67.8447 61.6875C67.8447 61.9133 67.8002 62.137 67.7138 62.3456C67.6274 62.5542 67.5007 62.7438 67.341 62.9035C67.1813 63.0632 66.9917 63.1899 66.7831 63.2763C66.5744 63.3627 66.3508 63.4072 66.125 63.4072C65.8991 63.4072 65.6755 63.3627 65.4669 63.2763C65.2582 63.1899 65.0687 63.0632 64.909 62.9035L61.8281 59.8205L58.7472 62.9035C58.4247 63.226 57.9873 63.4072 57.5312 63.4072C57.0751 63.4072 56.6377 63.226 56.3152 62.9035C55.9927 62.581 55.8115 62.1436 55.8115 61.6875C55.8115 61.2314 55.9927 60.794 56.3152 60.4715L59.3982 57.3906L56.3152 54.3098C55.9927 53.9873 55.8115 53.5498 55.8115 53.0938C55.8115 52.6377 55.9927 52.2002 56.3152 51.8777C56.6377 51.5552 57.0751 51.374 57.5312 51.374C57.9873 51.374 58.4247 51.5552 58.7472 51.8777L61.8281 54.9607L64.909 51.8777C65.2315 51.5552 65.6689 51.374 66.125 51.374C66.5811 51.374 67.0185 51.5552 67.341 51.8777C67.6635 52.2002 67.8447 52.6377 67.8447 53.0938C67.8447 53.5498 67.6635 53.9873 67.341 54.3098L64.258 57.3906L67.341 60.4715ZM57.6322 41.2408C56.3045 46.0383 52.1924 50.1848 47.6355 51.3234C47.4992 51.3576 47.3592 51.3749 47.2187 51.375C46.7996 51.3742 46.3952 51.2203 46.0816 50.9423C45.768 50.6642 45.5668 50.2812 45.5159 49.8652C45.465 49.4492 45.5678 49.0289 45.805 48.6834C46.0422 48.3379 46.3975 48.091 46.8041 47.9891C50.1621 47.149 53.3246 43.9264 54.3236 40.3234C55.009 37.8527 55.0154 34.093 51.1633 30.2473L50.6562 29.7424V34.1875C50.6562 34.6433 50.4751 35.0805 50.1528 35.4028C49.8305 35.7252 49.3933 35.9062 48.9375 35.9062C48.4816 35.9062 48.0445 35.7252 47.7221 35.4028C47.3998 35.0805 47.2187 34.6433 47.2187 34.1875V25.5938C47.2187 25.1379 47.3998 24.7007 47.7221 24.3784C48.0445 24.0561 48.4816 23.875 48.9375 23.875H57.5312C57.9871 23.875 58.4242 24.0561 58.7466 24.3784C59.0689 24.7007 59.25 25.1379 59.25 25.5938C59.25 26.0496 59.0689 26.4868 58.7466 26.8091C58.4242 27.1314 57.9871 27.3125 57.5312 27.3125H53.0861L53.591 27.8152C57.5097 31.7361 58.9449 36.5035 57.6322 41.2408Z" fill="#0A0A0A"/>
</svg>
