<svg width="90" height="90" viewBox="0 0 90 90" fill="none" xmlns="http://www.w3.org/2000/svg">
<circle cx="45" cy="45" r="45" fill="#D4C5F9"/>
<path d="M31.75 41.8554L24.875 37.9344V30.09L31.75 26.1667L38.625 30.09V37.9344L31.75 41.8554ZM31.75 39.2292L36.3333 36.6213V31.4031L31.75 28.7929L27.1667 31.4031V36.6213L31.75 39.2292ZM55.2854 42.0456V39.4056L61.5417 43.0471V57.7665L48.9375 65.125L36.3333 57.7642V43.0471L42.5896 39.4056V42.0456L38.625 44.3602V56.4579L48.9375 62.4392L59.25 56.4579V44.3579L55.2854 42.0456ZM47.7917 49.0833V23.875H66.125L62.3346 29.6042L66.125 35.3333H50.0833V49.0833H47.7917Z" fill="#0A0A0A"/>
</svg>
