<svg width="90" height="90" viewBox="0 0 90 90" fill="none" xmlns="http://www.w3.org/2000/svg">
<circle cx="45" cy="45" r="45" fill="#B3F5E0"/>
<path d="M45.5003 22.7292C44.6221 22.7288 43.7556 22.9303 42.9677 23.3181C42.1798 23.7059 41.4916 24.2697 40.9562 24.9658C40.4209 25.662 40.0528 26.4719 39.8802 27.333C39.7077 28.194 39.7355 29.0833 39.9614 29.9319C38.5085 30.6492 37.5437 31.5292 36.7691 32.2327C36.5369 32.4481 36.3169 32.6422 36.1091 32.8148C35.6141 33.2273 35.1237 33.555 34.4889 33.7888C33.8472 34.0248 32.9924 34.1875 31.7503 34.1875C31.4464 34.1875 31.155 34.3082 30.9401 34.5231C30.7252 34.738 30.6045 35.0295 30.6045 35.3334C30.6045 35.6373 30.7252 35.9287 30.9401 36.1436C31.155 36.3585 31.4464 36.4792 31.7503 36.4792C33.1941 36.4792 34.3285 36.289 35.2795 35.9384C36.2374 35.5854 36.9524 35.095 37.5712 34.5794C37.8702 34.331 38.1629 34.075 38.4489 33.8117C39.1868 33.1425 39.8651 32.5284 40.9812 31.9806C41.8203 33.0578 43.0166 33.7998 44.3545 34.0729V54.8125C44.3545 57.5511 43.8045 59.5677 42.8557 60.8694C41.9482 62.1161 40.5939 62.8334 38.6253 62.8334C38.3214 62.8334 38.03 62.9541 37.8151 63.169C37.6002 63.3839 37.4795 63.6753 37.4795 63.9792C37.4795 64.2831 37.6002 64.5745 37.8151 64.7894C38.03 65.0043 38.3214 65.125 38.6253 65.125C41.2424 65.125 43.3232 64.1236 44.7097 62.2192C44.9847 61.8403 45.2284 61.4324 45.4407 60.9954C45.8227 61.7364 46.2887 62.3804 46.8387 62.9273C48.3787 64.4673 50.4068 65.125 52.3753 65.125C52.6792 65.125 52.9707 65.0043 53.1856 64.7894C53.4004 64.5745 53.5212 64.2831 53.5212 63.9792C53.5212 63.6753 53.4004 63.3839 53.1856 63.169C52.9707 62.9541 52.6792 62.8334 52.3753 62.8334C50.9087 62.8334 49.497 62.3452 48.4589 61.3071C47.4276 60.2759 46.6485 58.5869 46.6485 55.9584V34.0729C47.9846 33.7988 49.1792 33.0569 50.0172 31.9806C51.1355 32.5284 51.8139 33.1425 52.5541 33.8117C52.8291 34.0615 53.111 34.3159 53.4295 34.5794C54.0482 35.095 54.7632 35.5877 55.7212 35.9384C56.6745 36.289 57.8066 36.4792 59.2503 36.4792C59.5542 36.4792 59.8457 36.3585 60.0606 36.1436C60.2754 35.9287 60.3962 35.6373 60.3962 35.3334C60.3962 35.0295 60.2754 34.738 60.0606 34.5231C59.8457 34.3082 59.5542 34.1875 59.2503 34.1875C58.0082 34.1875 57.1535 34.0248 56.5118 33.7888C55.9174 33.5644 55.3685 33.2345 54.8916 32.8148C54.6869 32.6422 54.4669 32.4481 54.2316 32.2327C53.457 31.5269 52.4899 30.6515 51.0393 29.9296C51.1646 29.4591 51.228 28.9686 51.2295 28.4584C51.2295 26.9389 50.6259 25.4816 49.5515 24.4072C48.477 23.3328 47.0198 22.7292 45.5003 22.7292ZM42.0628 28.4584C42.0628 27.5467 42.425 26.6723 43.0696 26.0277C43.7143 25.383 44.5886 25.0209 45.5003 25.0209C46.412 25.0209 47.2864 25.383 47.931 26.0277C48.5757 26.6723 48.9378 27.5467 48.9378 28.4584C48.9378 29.37 48.5757 30.2444 47.931 30.889C47.2864 31.5337 46.412 31.8959 45.5003 31.8959C44.5886 31.8959 43.7143 31.5337 43.0696 30.889C42.425 30.2444 42.0628 29.37 42.0628 28.4584Z" fill="#0A0A0A"/>
<path d="M23.7288 47.9375C23.4249 47.9375 23.1335 48.0582 22.9186 48.2731C22.7037 48.488 22.583 48.7794 22.583 49.0833C22.583 51.5145 23.5488 53.846 25.2679 55.5651C26.9869 57.2842 29.3185 58.25 31.7497 58.25C34.1808 58.25 36.5124 57.2842 38.2315 55.5651C39.9506 53.846 40.9163 51.5145 40.9163 49.0833C40.9163 48.7794 40.7956 48.488 40.5807 48.2731C40.3659 48.0582 40.0744 47.9375 39.7705 47.9375H38.1938L33.7801 38.9243L33.7526 38.8716C33.5515 38.5103 33.2564 38.2102 32.8986 38.003C32.5408 37.7957 32.1336 37.6892 31.7202 37.6946C31.3068 37.7 30.9025 37.8172 30.5502 38.0337C30.1979 38.2502 29.9108 38.5579 29.7193 38.9243L25.3055 47.9375H23.7288ZM25.9976 50.2291H38.5307C38.2627 51.8339 37.4342 53.2916 36.1925 54.343C34.9509 55.3944 33.3767 55.9714 31.7497 55.9714C30.1227 55.9714 28.5484 55.3944 27.3068 54.343C26.0652 53.2916 25.2367 51.8339 24.9686 50.2291H25.9976ZM35.6432 47.9375H27.8584L31.7497 39.9877L35.6432 47.9375ZM50.083 49.0833C50.083 48.7794 50.2037 48.488 50.4186 48.2731C50.6335 48.0582 50.925 47.9375 51.2288 47.9375H52.8055L57.2193 38.9243L57.2468 38.8716C57.4478 38.5103 57.7429 38.2102 58.1007 38.003C58.4585 37.7957 58.8657 37.6892 59.2792 37.6946C59.6926 37.7 60.0969 37.8172 60.4491 38.0337C60.8014 38.2502 61.0885 38.5579 61.2801 38.9243L65.6938 47.9375H67.2705C67.5744 47.9375 67.8659 48.0582 68.0807 48.2731C68.2956 48.488 68.4163 48.7794 68.4163 49.0833C68.4163 51.5145 67.4506 53.846 65.7315 55.5651C64.0124 57.2842 61.6808 58.25 59.2497 58.25C56.8185 58.25 54.4869 57.2842 52.7679 55.5651C51.0488 53.846 50.083 51.5145 50.083 49.0833ZM64.9559 50.2291H52.4686C52.7367 51.8339 53.5652 53.2916 54.8068 54.343C56.0484 55.3944 57.6227 55.9714 59.2497 55.9714C60.8767 55.9714 62.4509 55.3944 63.6925 54.343C64.9342 53.2916 65.7627 51.8339 66.0307 50.2291H64.9559ZM63.1432 47.9375L59.2497 39.9877L55.3584 47.9375H63.1432Z" fill="#0A0A0A"/>
</svg>
