<svg width="20" height="21" viewBox="0 0 20 21" fill="none" xmlns="http://www.w3.org/2000/svg">
<path d="M10 5.8667V8.6417" stroke="#CFD1D4" stroke-width="1.25" stroke-miterlimit="10" stroke-linecap="round"/>
<path d="M10.0167 2.16675C6.95004 2.16675 4.4667 4.65008 4.4667 7.71675V9.46675C4.4667 10.0334 4.23337 10.8834 3.9417 11.3667L2.88337 13.1334C2.23337 14.2251 2.68337 15.4417 3.88337 15.8417C7.8667 17.1667 12.175 17.1667 16.1584 15.8417C17.2834 15.4667 17.7667 14.1501 17.1584 13.1334L16.1 11.3667C15.8084 10.8834 15.575 10.0251 15.575 9.46675V7.71675C15.5667 4.66675 13.0667 2.16675 10.0167 2.16675Z" stroke="#CFD1D4" stroke-width="1.25" stroke-miterlimit="10" stroke-linecap="round"/>
<path d="M12.775 16.1833C12.775 17.7083 11.525 18.9583 9.99998 18.9583C9.24164 18.9583 8.54164 18.6417 8.04164 18.1417C7.54164 17.6417 7.22498 16.9417 7.22498 16.1833" stroke="#CFD1D4" stroke-width="1.25" stroke-miterlimit="10"/>
</svg>
