<svg width="11" height="11" viewBox="0 0 11 11" fill="none" xmlns="http://www.w3.org/2000/svg">
<path fill-rule="evenodd" clip-rule="evenodd" d="M0.64935 0.648862C0.981296 0.316916 1.51949 0.316916 1.85143 0.648862L5.50039 4.29782L9.14935 0.648862C9.4813 0.316916 10.0195 0.316916 10.3514 0.648862C10.6834 0.980807 10.6834 1.519 10.3514 1.85094L6.70247 5.4999L10.3514 9.14886C10.6834 9.48081 10.6834 10.019 10.3514 10.3509C10.0195 10.6829 9.4813 10.6829 9.14935 10.3509L5.50039 6.70198L1.85143 10.3509C1.51949 10.6829 0.981296 10.6829 0.64935 10.3509C0.317404 10.019 0.317404 9.48081 0.64935 9.14886L4.29831 5.4999L0.64935 1.85094C0.317404 1.519 0.317404 0.980807 0.64935 0.648862Z" fill="#9CA3AF"/>
</svg>
