<svg width="22" height="21" viewBox="0 0 22 21" fill="none" xmlns="http://www.w3.org/2000/svg">
<g id="system-uicons:coins">
<g id="Group">
<path id="Vector" d="M18.7856 11.5V14.5C18.7856 15.8 15.6516 17.5 11.7856 17.5C7.91964 17.5 4.78564 15.8 4.78564 14.5V12" stroke="black" stroke-width="1.2" stroke-linecap="round" stroke-linejoin="round"/>
<path id="Vector_2" d="M5.07959 12.2583C5.94459 13.4063 8.61959 14.4833 11.7856 14.4833C15.6516 14.4833 18.7856 12.8773 18.7856 11.4973C18.7856 10.7223 17.7986 9.87334 16.2496 9.27734" stroke="black" stroke-width="1.2" stroke-linecap="round" stroke-linejoin="round"/>
<path id="Vector_3" d="M15.7856 6.5V9.5C15.7856 10.8 12.6516 12.5 8.78564 12.5C4.91964 12.5 1.78564 10.8 1.78564 9.5V6.5" stroke="black" stroke-width="1.2" stroke-linecap="round" stroke-linejoin="round"/>
<path id="Vector_4" fill-rule="evenodd" clip-rule="evenodd" d="M8.78564 9.484C12.6516 9.484 15.7856 7.878 15.7856 6.498C15.7856 5.118 12.6516 3.5 8.78564 3.5C4.91964 3.5 1.78564 5.117 1.78564 6.498C1.78564 7.878 4.91964 9.484 8.78564 9.484Z" stroke="black" stroke-width="1.2" stroke-linecap="round" stroke-linejoin="round"/>
</g>
</g>
</svg>
