<svg width="16" height="17" viewBox="0 0 16 17" fill="none" xmlns="http://www.w3.org/2000/svg">
<path d="M6.43338 5.50109C6.58818 5.39789 6.77939 5.30565 7 5.23426L7.00001 6.93225C6.77939 6.86085 6.58818 6.76861 6.43338 6.66542C6.06927 6.42268 6 6.19715 6 6.08325C6 5.96935 6.06927 5.74383 6.43338 5.50109Z" fill="#9CA3AF"/>
<path d="M9.00002 10.9322L9.00001 9.23426C9.22062 9.30566 9.41184 9.39789 9.56663 9.50109C9.93075 9.74383 10 9.96936 10 10.0833C10 10.1972 9.93075 10.4227 9.56664 10.6654C9.41184 10.7686 9.22063 10.8609 9.00002 10.9322Z" fill="#9CA3AF"/>
<path fill-rule="evenodd" clip-rule="evenodd" d="M8 16.0833C12.4183 16.0833 16 12.5015 16 8.08325C16 3.66497 12.4183 0.083252 8 0.083252C3.58172 0.083252 0 3.66497 0 8.08325C0 12.5015 3.58172 16.0833 8 16.0833ZM9 3.08325C9 2.53097 8.55228 2.08325 8 2.08325C7.44772 2.08325 7 2.53097 7 3.08325V3.17525C6.3784 3.29198 5.80348 3.51732 5.32398 3.83699C4.6023 4.31811 4 5.09258 4 6.08325C4 7.07392 4.6023 7.8484 5.32398 8.32952C5.80348 8.64918 6.37841 8.87453 7.00001 8.99126L7.00002 10.9325C6.60902 10.8055 6.31917 10.6152 6.15667 10.4279C5.79471 10.0107 5.16313 9.966 4.74599 10.328C4.32885 10.6899 4.28411 11.3215 4.64607 11.7386C5.20855 12.3869 6.05956 12.8141 7 12.9909L7 13.0832C6.99999 13.6355 7.44769 14.0832 7.99998 14.0833C8.55226 14.0833 8.99999 13.6356 9 13.0833L9 12.9913C9.62161 12.8745 10.1965 12.6492 10.676 12.3295C11.3977 11.8484 12 11.0739 12 10.0833C12 9.09258 11.3977 8.3181 10.676 7.83699C10.1965 7.51732 9.6216 7.29198 9.00001 7.17525L9 5.234C9.391 5.36096 9.68085 5.55135 9.84335 5.73863C10.2053 6.15577 10.8369 6.20051 11.254 5.83855C11.6712 5.4766 11.7159 4.84502 11.354 4.42787C10.7915 3.77962 9.94046 3.3524 9 3.17561V3.08325Z" fill="#9CA3AF"/>
</svg>
