<svg width="16" height="17" viewBox="0 0 16 17" fill="none" xmlns="http://www.w3.org/2000/svg">
<path fill-rule="evenodd" clip-rule="evenodd" d="M8 2.08325C8.36819 2.08325 8.66667 2.38173 8.66667 2.74992V7.41659H13.3333C13.7015 7.41659 14 7.71506 14 8.08325C14 8.45144 13.7015 8.74992 13.3333 8.74992H8.66667V13.4166C8.66667 13.7848 8.36819 14.0833 8 14.0833C7.63181 14.0833 7.33333 13.7848 7.33333 13.4166V8.74992H2.66667C2.29848 8.74992 2 8.45144 2 8.08325C2 7.71506 2.29848 7.41658 2.66667 7.41658H7.33333V2.74992C7.33333 2.38173 7.63181 2.08325 8 2.08325Z" fill="#9CA3AF"/>
</svg>
