<svg width="21" height="21" viewBox="0 0 21 21" fill="none" xmlns="http://www.w3.org/2000/svg">
<path d="M10.5 13C11.8807 13 13 11.8807 13 10.5C13 9.11929 11.8807 8 10.5 8C9.11929 8 8 9.11929 8 10.5C8 11.8807 9.11929 13 10.5 13Z" stroke="#CFD1D4" stroke-width="1.25" stroke-miterlimit="10" stroke-linecap="round" stroke-linejoin="round"/>
<path d="M2.16666 11.2334V9.76669C2.16666 8.90003 2.87499 8.18336 3.74999 8.18336C5.25832 8.18336 5.87499 7.1167 5.11666 5.80836C4.68332 5.05836 4.94166 4.08336 5.69999 3.65003L7.14166 2.82503C7.79999 2.43336 8.64999 2.6667 9.04166 3.32503L9.13332 3.48336C9.88332 4.7917 11.1167 4.7917 11.875 3.48336L11.9667 3.32503C12.3583 2.6667 13.2083 2.43336 13.8667 2.82503L15.3083 3.65003C16.0667 4.08336 16.325 5.05836 15.8917 5.80836C15.1333 7.1167 15.75 8.18336 17.2583 8.18336C18.125 8.18336 18.8417 8.89169 18.8417 9.76669V11.2334C18.8417 12.1 18.1333 12.8167 17.2583 12.8167C15.75 12.8167 15.1333 13.8834 15.8917 15.1917C16.325 15.95 16.0667 16.9167 15.3083 17.35L13.8667 18.175C13.2083 18.5667 12.3583 18.3334 11.9667 17.675L11.875 17.5167C11.125 16.2084 9.89166 16.2084 9.13332 17.5167L9.04166 17.675C8.64999 18.3334 7.79999 18.5667 7.14166 18.175L5.69999 17.35C4.94166 16.9167 4.68332 15.9417 5.11666 15.1917C5.87499 13.8834 5.25832 12.8167 3.74999 12.8167C2.87499 12.8167 2.16666 12.1 2.16666 11.2334Z" stroke="#CFD1D4" stroke-width="1.25" stroke-miterlimit="10" stroke-linecap="round" stroke-linejoin="round"/>
</svg>
