<svg width="20" height="21" viewBox="0 0 20 21" fill="none" xmlns="http://www.w3.org/2000/svg">
<path d="M9.99998 15.9166C12.9915 15.9166 15.4166 13.4915 15.4166 10.4999C15.4166 7.50838 12.9915 5.08325 9.99998 5.08325C7.00844 5.08325 4.58331 7.50838 4.58331 10.4999C4.58331 13.4915 7.00844 15.9166 9.99998 15.9166Z" stroke="#CFD1D4" stroke-width="1.25" stroke-linecap="round" stroke-linejoin="round"/>
<path d="M15.95 16.4501L15.8417 16.3417M15.8417 4.65841L15.95 4.55008L15.8417 4.65841ZM4.05002 16.4501L4.15835 16.3417L4.05002 16.4501ZM10 2.23341V2.16675V2.23341ZM10 18.8334V18.7667V18.8334ZM1.73335 10.5001H1.66669H1.73335ZM18.3334 10.5001H18.2667H18.3334ZM4.15835 4.65841L4.05002 4.55008L4.15835 4.65841Z" stroke="#CFD1D4" stroke-width="1.66667" stroke-linecap="round" stroke-linejoin="round"/>
</svg>
